<svg xmlns="http://www.w3.org/2000/svg" xmlns:xlink="http://www.w3.org/1999/xlink" width="110" height="110" viewBox="0 0 110 110">
  <defs>
    <clipPath id="clip-path">
      <circle id="Ellipse_3" data-name="Ellipse 3" cx="55" cy="55" r="55" transform="translate(503 643)" fill="#fff" stroke="#707070" stroke-width="2"/>
    </clipPath>
  </defs>
  <g id="Mask_Group_3" data-name="Mask Group 3" transform="translate(-503 -643)" clip-path="url(#clip-path)">
    <g id="instagram" transform="translate(533.413 673.51)">
      <path id="Path_4" data-name="Path 4" d="M51.913,15.276a18.986,18.986,0,0,0-1.208-6.3,13.31,13.31,0,0,0-7.6-7.6A19.035,19.035,0,0,0,36.8.163C34.018.031,33.135,0,26.081,0S18.144.031,15.372.152a18.991,18.991,0,0,0-6.3,1.208,12.678,12.678,0,0,0-4.608,3,12.793,12.793,0,0,0-2.994,4.6,19.037,19.037,0,0,0-1.208,6.3C.127,18.047.1,18.93.1,25.985s.031,7.937.152,10.708A18.985,18.985,0,0,0,1.457,43a13.308,13.308,0,0,0,7.6,7.6,19.037,19.037,0,0,0,6.3,1.208c2.771.122,3.654.152,10.708.152s7.937-.03,10.708-.152a18.981,18.981,0,0,0,6.3-1.208,13.29,13.29,0,0,0,7.6-7.6,19.05,19.05,0,0,0,1.208-6.3c.122-2.771.152-3.654.152-10.708s-.01-7.937-.132-10.708ZM47.234,36.49a14.242,14.242,0,0,1-.893,4.821,8.619,8.619,0,0,1-4.933,4.933,14.292,14.292,0,0,1-4.821.893c-2.741.122-3.562.152-10.5.152s-7.765-.03-10.5-.152a14.234,14.234,0,0,1-4.821-.893A8,8,0,0,1,7.79,44.306a8.078,8.078,0,0,1-1.939-2.984A14.294,14.294,0,0,1,4.959,36.5c-.122-2.741-.152-3.563-.152-10.5s.03-7.765.152-10.5a14.234,14.234,0,0,1,.893-4.821A7.9,7.9,0,0,1,7.8,7.7a8.066,8.066,0,0,1,2.984-1.938,14.3,14.3,0,0,1,4.821-.893c2.741-.122,3.563-.152,10.5-.152s7.765.031,10.5.152a14.242,14.242,0,0,1,4.821.893A7.989,7.989,0,0,1,44.4,7.7a8.076,8.076,0,0,1,1.939,2.984,14.3,14.3,0,0,1,.893,4.821c.122,2.741.152,3.562.152,10.5s-.031,7.745-.152,10.485Zm0,0" transform="translate(0)" fill="#fff"/>
      <path id="Path_5" data-name="Path 5" d="M40.2,26.753A13.348,13.348,0,1,0,53.545,40.1,13.351,13.351,0,0,0,40.2,26.753Zm0,22.006A8.658,8.658,0,1,1,48.856,40.1,8.66,8.66,0,0,1,40.2,48.759Zm0,0" transform="translate(-14.116 -14.116)" fill="#fff"/>
      <path id="Path_6" data-name="Path 6" d="M84.118,22.155A3.116,3.116,0,1,1,81,19.039,3.116,3.116,0,0,1,84.118,22.155Zm0,0" transform="translate(-41.045 -10.046)" fill="#fff"/>
    </g>
  </g>
</svg>
