<svg xmlns="http://www.w3.org/2000/svg" xmlns:xlink="http://www.w3.org/1999/xlink" width="110" height="110" viewBox="0 0 110 110">
  <defs>
    <clipPath id="clip-path">
      <circle id="Ellipse_8" data-name="Ellipse 8" cx="55" cy="55" r="55" transform="translate(337 643)" fill="#fff" stroke="#707070" stroke-width="2"/>
    </clipPath>
  </defs>
  <g id="Mask_Group_1" data-name="Mask Group 1" transform="translate(-337 -643)" clip-path="url(#clip-path)">
    <g id="twitter" transform="translate(337 643)">
      <g id="Group_4" data-name="Group 4" transform="translate(28 24.557)">
        <path id="Path_1" data-name="Path 1" d="M54.27,15.533a23.2,23.2,0,0,1-6.411,1.757,11.063,11.063,0,0,0,4.894-6.149A22.234,22.234,0,0,1,45.7,13.833a11.125,11.125,0,0,0-19.245,7.608,11.456,11.456,0,0,0,.258,2.537A31.492,31.492,0,0,1,3.779,12.341,11.129,11.129,0,0,0,7.2,27.211a10.987,10.987,0,0,1-5.027-1.37v.122a11.177,11.177,0,0,0,8.914,10.932,11.1,11.1,0,0,1-2.917.366,9.837,9.837,0,0,1-2.106-.19,11.232,11.232,0,0,0,10.4,7.75A22.355,22.355,0,0,1,2.663,49.566,20.838,20.838,0,0,1,0,49.414a31.322,31.322,0,0,0,17.068,4.993c20.473,0,31.666-16.959,31.666-31.66,0-.492-.017-.967-.041-1.438A22.2,22.2,0,0,0,54.27,15.533Z" transform="translate(0 0)" fill="#fff"/>
      </g>
    </g>
  </g>
</svg>
